<?xml version="1.0" encoding="utf-8"?>
<!-- Generator: Adobe Illustrator 24.1.2, SVG Export Plug-In . SVG Version: 6.00 Build 0)  -->
<svg version="1.1" id="Layer_1" xmlns="http://www.w3.org/2000/svg" xmlns:xlink="http://www.w3.org/1999/xlink" x="0px" y="0px"
	 viewBox="0 0 500 500" enable-background="new 0 0 500 500" xml:space="preserve">
<g>
	<path fill="#FFFFFF" d="M250,494.45c-65.3,0-126.68-25.43-172.86-71.6C30.97,376.68,5.55,315.3,5.55,250
		c0-65.3,25.43-126.68,71.6-172.86S184.7,5.55,250,5.55c65.3,0,126.68,25.43,172.86,71.6c46.17,46.17,71.6,107.56,71.6,172.86
		c0,65.3-25.43,126.68-71.6,172.86C376.68,469.03,315.3,494.45,250,494.45z M250,25.55C126.24,25.55,25.55,126.24,25.55,250
		S126.24,474.45,250,474.45S474.45,373.76,474.45,250S373.76,25.55,250,25.55z"/>
</g>
<g>
	<path fill="#FFFFFF" d="M104.42,314.1c11.91,7.84,29.15,13.48,47.64,13.48c20.37,0,39.18-10.97,39.18-31.34
		c0-13.79-9.09-23.19-29.78-34.16c-24.45-13.16-42.94-30.09-42.94-55.16c0-40.43,35.1-65.82,77.73-65.82
		c23.51,0,38.86,5.96,47.01,10.66l-11.91,30.4c-6.9-3.76-21-9.72-38.24-9.4c-23.19,0-36.36,13.48-36.36,27.58
		c0,14.42,11.91,22.88,31.66,34.16c25.7,13.48,41.06,30.4,41.06,56.1c0,42.31-34.16,68.33-81.49,68.33c-25.7,0-46.7-7.21-56.1-14.73
		L104.42,314.1z"/>
	<path fill="#FFFFFF" d="M291.53,144.53h116.59l-6.27,31.03h-79.61l-11.28,59.55h73.97l-5.95,30.72H305l-16.93,89.95h-36.67
		L291.53,144.53z"/>
</g>
</svg>
